<svg width="20" height="20" viewBox="0 0 20 20" fill="none" xmlns="http://www.w3.org/2000/svg">
<mask id="mask0_2702_27796" style="mask-type:alpha" maskUnits="userSpaceOnUse" x="0" y="0" width="20" height="20">
<rect width="20" height="20" fill="#D9D9D9"/>
</mask>
<g mask="url(#mask0_2702_27796)">
<path d="M7.54813 14.584C7.12715 14.584 6.77083 14.4382 6.47917 14.1465C6.1875 13.8548 6.04167 13.4985 6.04167 13.0775V3.59044C6.04167 3.16947 6.1875 2.81315 6.47917 2.52148C6.77083 2.22982 7.12715 2.08398 7.54813 2.08398H14.5352C14.9562 2.08398 15.3125 2.22982 15.6042 2.52148C15.8958 2.81315 16.0417 3.16947 16.0417 3.59044V13.0775C16.0417 13.4985 15.8958 13.8548 15.6042 14.1465C15.3125 14.4382 14.9562 14.584 14.5352 14.584H7.54813ZM7.54813 13.334H14.5352C14.5994 13.334 14.6581 13.3072 14.7115 13.2538C14.7649 13.2004 14.7917 13.1417 14.7917 13.0775V3.59044C14.7917 3.52628 14.7649 3.46753 14.7115 3.41419C14.6581 3.36072 14.5994 3.33398 14.5352 3.33398H7.54813C7.48396 3.33398 7.42521 3.36072 7.37188 3.41419C7.3184 3.46753 7.29167 3.52628 7.29167 3.59044V13.0775C7.29167 13.1417 7.3184 13.2004 7.37188 13.2538C7.42521 13.3072 7.48396 13.334 7.54813 13.334ZM4.63146 17.5007C4.21049 17.5007 3.85417 17.3548 3.5625 17.0632C3.27083 16.7715 3.125 16.4152 3.125 15.9942V5.88211C3.125 5.70475 3.18486 5.55621 3.30458 5.43648C3.42417 5.3169 3.57264 5.25711 3.75 5.25711C3.92736 5.25711 4.0759 5.3169 4.19563 5.43648C4.31521 5.55621 4.375 5.70475 4.375 5.88211V15.9942C4.375 16.0584 4.40174 16.1171 4.45521 16.1704C4.50854 16.2239 4.56729 16.2507 4.63146 16.2507H12.2435C12.4209 16.2507 12.5694 16.3104 12.6892 16.43C12.8088 16.5497 12.8685 16.6983 12.8685 16.8757C12.8685 17.053 12.8088 17.2015 12.6892 17.3211C12.5694 17.4408 12.4209 17.5007 12.2435 17.5007H4.63146Z" fill="#0E1328"/>
</g>
</svg>
