<svg width="24" height="24" viewBox="0 0 24 24" fill="none" xmlns="http://www.w3.org/2000/svg">
<path d="M12.4414 0.498047C16.9824 0.498047 19.2532 0.498108 20.8887 1.58008C21.6189 2.06323 22.2443 2.68878 22.7275 3.41895C23.8097 5.05437 23.8105 7.32515 23.8105 11.8662C23.8105 16.4074 23.8097 18.678 22.7275 20.3135C22.2443 21.0438 21.619 21.6691 20.8887 22.1523C19.2532 23.2345 16.9826 23.2354 12.4414 23.2354C7.90035 23.2354 5.62957 23.2345 3.99414 22.1523C3.26397 21.6691 2.63843 21.0437 2.15527 20.3135C1.0733 18.678 1.07324 16.4072 1.07324 11.8662C1.07324 7.32515 1.07316 5.05437 2.15527 3.41895C2.63847 2.68871 3.26391 2.06327 3.99414 1.58008C5.62957 0.497962 7.90035 0.498047 12.4414 0.498047ZM12.4424 5.98047C9.19198 5.98047 6.55681 8.61584 6.55664 11.8662C6.55664 15.1167 9.19187 17.752 12.4424 17.752C15.6927 17.7517 18.3271 15.1166 18.3271 11.8662C18.327 8.616 15.6926 5.98072 12.4424 5.98047ZM12.4424 7.97266C14.5928 7.97291 16.3358 9.71574 16.3359 11.8662C16.3359 14.0168 14.5929 15.7605 12.4424 15.7607C10.2916 15.7607 8.54785 14.017 8.54785 11.8662C8.54802 9.71558 10.2917 7.97266 12.4424 7.97266ZM18.5596 4.30273C17.796 4.30294 17.1768 4.9219 17.1768 5.68555C17.1769 6.44906 17.7961 7.06816 18.5596 7.06836C19.3232 7.06836 19.9432 6.44919 19.9434 5.68555C19.9434 4.92177 19.3233 4.30273 18.5596 4.30273Z" fill="white" fill-opacity="0.5"/>
</svg>
