<svg width="24" height="24" viewBox="0 0 24 24" fill="none" xmlns="http://www.w3.org/2000/svg">
<g clip-path="url(#clip0_2789_20811)">
<path d="M12 24C18.6274 24 24 18.6274 24 12C24 5.37258 18.6274 0 12 0C5.37258 0 0 5.37258 0 12C0 18.6274 5.37258 24 12 24Z" fill="white" fill-opacity="0.5"/>
<path d="M19.1698 12.9651V17.9124H16.3014V13.2967C16.3014 12.1377 15.8873 11.3462 14.8488 11.3462C14.0562 11.3462 13.5854 11.8791 13.3775 12.395C13.302 12.5794 13.2825 12.8355 13.2825 13.0941V17.9122H10.4139C10.4139 17.9122 10.4525 10.0946 10.4139 9.28539H13.2827V10.5079C13.2769 10.5175 13.2688 10.5269 13.2637 10.5361H13.2827V10.5079C13.6639 9.92135 14.3437 9.08282 15.8678 9.08282C17.755 9.08282 19.1698 10.3158 19.1698 12.9651ZM7.4132 5.12695C6.43199 5.12695 5.79004 5.77104 5.79004 6.61727C5.79004 7.44554 6.41338 8.10824 7.37555 8.10824H7.39416C8.39462 8.10824 9.01668 7.44554 9.01668 6.61727C8.99764 5.77104 8.39462 5.12695 7.4132 5.12695ZM5.96053 17.9124H8.82801V9.28539H5.96053V17.9124Z" fill="#0E1328"/>
</g>
<defs>
<clipPath id="clip0_2789_20811">
<rect width="24" height="24" fill="white"/>
</clipPath>
</defs>
</svg>
